<svg width="205" height="58" viewBox="0 0 205 58" fill="none" xmlns="http://www.w3.org/2000/svg">
<path d="M11.2 39.368C11.0507 37.512 10.944 35.7093 10.88 33.96C10.8373 32.2107 10.816 30.5573 10.816 29C10.816 26.4187 10.8693 24.104 10.976 22.056C11.0827 19.9867 11.1893 18.2053 11.296 16.712C9.46133 16.8187 7.68 16.9573 5.952 17.128C4.224 17.2987 2.624 17.5227 1.152 17.8L1.216 12.456C3.712 12.008 6.272 11.688 8.896 11.496C11.52 11.2827 14.144 11.176 16.768 11.176C18.6453 11.176 20.4373 11.2187 22.144 11.304C23.872 11.3893 25.5253 11.5173 27.104 11.688L27.072 17.224C25.5787 16.9893 23.9573 16.8293 22.208 16.744C20.48 16.6373 18.7093 16.584 16.896 16.584C16.7893 18.0347 16.6933 19.656 16.608 21.448C16.5227 23.2187 16.48 25.1173 16.48 27.144C16.48 28.9573 16.5227 30.8667 16.608 32.872C16.7147 34.8773 16.8427 36.9893 16.992 39.208L11.2 39.368ZM39.45 39.56C37.402 39.56 35.5993 39.1547 34.042 38.344C32.506 37.5547 31.3007 36.4453 30.426 35.016C29.5727 33.5867 29.146 31.9333 29.146 30.056C29.146 28.9253 29.338 27.7413 29.722 26.504C30.106 25.2453 30.7247 24.072 31.578 22.984C32.4313 21.896 33.5513 21.0107 34.938 20.328C36.346 19.6453 38.0527 19.304 40.058 19.304C41.5087 19.304 42.7247 19.464 43.706 19.784C44.7087 20.104 45.5193 20.52 46.138 21.032C46.778 21.544 47.258 22.088 47.578 22.664C47.9193 23.24 48.1433 23.7947 48.25 24.328C48.378 24.84 48.442 25.2667 48.442 25.608C48.442 27.6773 47.5673 29.2773 45.818 30.408C44.09 31.5173 41.6367 32.072 38.458 32.072C37.7327 32.072 37.0393 32.04 36.378 31.976C35.738 31.912 35.1407 31.8373 34.586 31.752C34.9913 32.8187 35.6633 33.608 36.602 34.12C37.5407 34.6107 38.5113 34.856 39.514 34.856C40.9647 34.856 42.2447 34.6 43.354 34.088C44.4633 33.5547 45.5087 32.744 46.49 31.656L49.338 35.752C48.6553 36.3067 47.8873 36.8827 47.034 37.48C46.202 38.0773 45.178 38.568 43.962 38.952C42.746 39.3573 41.242 39.56 39.45 39.56ZM40.154 24.104C38.8953 24.104 37.786 24.424 36.826 25.064C35.866 25.704 35.162 26.5467 34.714 27.592C35.2473 27.6773 35.77 27.752 36.282 27.816C36.8153 27.8587 37.338 27.88 37.85 27.88C38.3193 27.88 38.8527 27.8373 39.45 27.752C40.0687 27.6667 40.666 27.5387 41.242 27.368C41.8393 27.1973 42.33 26.984 42.714 26.728C43.098 26.4507 43.29 26.1307 43.29 25.768C43.29 25.5973 43.2047 25.384 43.034 25.128C42.8633 24.872 42.554 24.6373 42.106 24.424C41.658 24.2107 41.0073 24.104 40.154 24.104ZM58.0573 39.528C56.8839 39.528 55.9133 39.272 55.1453 38.76C54.3986 38.2693 53.8013 37.5867 53.3533 36.712C52.9266 35.8373 52.6066 34.8347 52.3932 33.704C52.2013 32.5733 52.0733 31.368 52.0093 30.088C51.9666 28.7867 51.9453 27.4853 51.9453 26.184C51.9453 25.0533 51.9773 23.816 52.0413 22.472C52.1053 21.1067 52.1799 19.7307 52.2653 18.344C52.3719 16.936 52.4786 15.6133 52.5853 14.376C52.7133 13.1387 52.8306 12.0613 52.9373 11.144L58.7292 11.208C58.5586 12.296 58.3986 13.5333 58.2493 14.92C58.0999 16.2853 57.9719 17.672 57.8653 19.08C57.7799 20.488 57.7053 21.7893 57.6413 22.984C57.5986 24.1787 57.5773 25.128 57.5773 25.832C57.5773 27.7733 57.6093 29.2987 57.6733 30.408C57.7586 31.5173 57.8759 32.3067 58.0253 32.776C58.1959 33.224 58.4199 33.448 58.6973 33.448C59.0599 33.448 59.4546 33.224 59.8813 32.776C60.3079 32.3067 60.7239 31.784 61.1293 31.208L63.8493 36.616C63.1879 37.3413 62.3986 38.0027 61.4813 38.6C60.5639 39.2187 59.4226 39.528 58.0573 39.528ZM71.7185 45.672L66.9185 43.112C68.1132 41.7893 69.2758 40.424 70.4065 39.016C71.5372 37.6293 72.6145 36.2 73.6385 34.728C72.6358 33.384 71.6332 31.944 70.6305 30.408C69.6278 28.8507 68.6998 27.3253 67.8465 25.832C66.9932 24.3387 66.2998 23.0053 65.7665 21.832L70.8865 19.592C71.2705 20.616 71.7612 21.7253 72.3585 22.92C72.9772 24.1147 73.6492 25.3307 74.3745 26.568C75.1212 27.8053 75.8892 28.9893 76.6785 30.12C78.9825 26.3867 80.8812 22.7067 82.3745 19.08L87.6865 21.192C86.7265 23.0267 85.6385 25 84.4225 27.112C83.2278 29.2027 81.9372 31.336 80.5505 33.512C79.1852 35.6667 77.7558 37.7787 76.2625 39.848C74.7692 41.9387 73.2545 43.88 71.7185 45.672ZM96.9838 39.624C95.6184 39.624 94.4878 39.3787 93.5918 38.888C92.7171 38.4187 92.0131 37.768 91.4798 36.936C90.9678 36.104 90.5838 35.176 90.3278 34.152C90.0931 33.1067 89.9331 32.0293 89.8478 30.92C89.7838 29.7893 89.7518 28.7013 89.7518 27.656C89.7518 26.4613 89.7838 25.2453 89.8478 24.008C89.9331 22.7707 90.0184 21.416 90.1038 19.944L95.9598 19.592C95.8958 20.04 95.7998 20.712 95.6718 21.608C95.5438 22.504 95.4264 23.528 95.3198 24.68C95.2131 25.832 95.1598 27.0373 95.1598 28.296C95.1598 30.3653 95.3411 31.9013 95.7038 32.904C96.0664 33.8853 96.6104 34.376 97.3358 34.376C98.7864 34.376 99.8531 33.32 100.536 31.208C101.218 29.096 101.56 25.7573 101.56 21.192V19.72L104.28 19.656L107.576 19.592C107.277 21.5973 107.053 23.4427 106.904 25.128C106.754 26.8133 106.658 28.232 106.616 29.384C106.573 30.5147 106.552 31.272 106.552 31.656C106.552 32.6373 106.637 33.3413 106.808 33.768C106.978 34.1733 107.277 34.376 107.704 34.376C107.917 34.376 108.152 34.3333 108.408 34.248C108.664 34.1627 108.962 34.0133 109.304 33.8L109.08 39.304C108.269 39.432 107.565 39.496 106.968 39.496C105.944 39.496 105.101 39.304 104.44 38.92C103.8 38.536 103.288 38.024 102.904 37.384C102.242 38.088 101.421 38.632 100.44 39.016C99.4798 39.4213 98.3278 39.624 96.9838 39.624ZM121.542 39.528C120.262 39.528 119.249 39.2507 118.502 38.696C117.756 38.1627 117.212 37.416 116.87 36.456C116.529 35.496 116.305 34.3973 116.198 33.16C116.113 31.9227 116.07 30.6213 116.07 29.256C116.07 27.848 116.124 26.3867 116.23 24.872C114.801 25.064 113.425 25.3093 112.102 25.608L111.11 20.584C112.881 20.1147 114.769 19.7733 116.774 19.56C116.924 18.472 117.084 17.3307 117.254 16.136C117.425 14.92 117.617 13.64 117.83 12.296L123.334 12.776C123.078 13.8853 122.854 14.9947 122.662 16.104C122.47 17.192 122.3 18.248 122.15 19.272C123.345 19.272 124.465 19.304 125.51 19.368C126.577 19.4107 127.558 19.496 128.454 19.624L127.814 24.648C127.068 24.5627 126.289 24.5093 125.478 24.488C124.689 24.4453 123.889 24.424 123.078 24.424C122.588 24.424 122.097 24.4347 121.606 24.456C121.478 26.0133 121.393 27.3467 121.35 28.456C121.329 29.5653 121.318 30.3547 121.318 30.824C121.318 31.9973 121.382 32.84 121.51 33.352C121.66 33.864 121.894 34.12 122.214 34.12C122.577 34.12 122.982 34.0027 123.43 33.768C123.878 33.512 124.316 33.1707 124.742 32.744C125.19 32.3173 125.564 31.8587 125.862 31.368L128.326 36.52C126.214 38.5253 123.953 39.528 121.542 39.528ZM130.628 16.328C130.628 16.136 130.617 15.944 130.596 15.752C130.596 15.5387 130.596 15.304 130.596 15.048C130.596 14.3653 130.617 13.64 130.66 12.872C130.702 12.104 130.745 11.4533 130.788 10.92L136.484 11.016C136.42 11.7413 136.345 12.5627 136.26 13.48C136.196 14.3973 136.153 15.3467 136.132 16.328H130.628ZM130.5 39.24C130.436 37.9173 130.393 36.5093 130.372 35.016C130.35 33.5013 130.34 31.9867 130.34 30.472C130.34 28.488 130.361 26.5573 130.404 24.68C130.446 22.8027 130.5 21.096 130.564 19.56L136.068 19.528C135.982 20.5093 135.929 21.7253 135.908 23.176C135.886 24.6053 135.876 26.1093 135.876 27.688C135.876 29.2453 135.886 30.7813 135.908 32.296C135.929 33.8107 135.95 35.1867 135.972 36.424C136.014 37.64 136.046 38.5787 136.068 39.24H130.5ZM139.897 39.528L139.097 35.336C139.374 35.2293 139.705 35.1333 140.089 35.048C140.75 34.6213 141.508 34.056 142.361 33.352C143.236 32.6267 144.132 31.8373 145.049 30.984C145.966 30.1307 146.852 29.288 147.705 28.456C148.558 27.6027 149.305 26.8347 149.945 26.152C150.585 25.4693 151.054 24.936 151.353 24.552C151.46 24.4027 151.534 24.296 151.577 24.232C151.62 24.1467 151.641 24.0933 151.641 24.072C151.641 24.0933 151.492 24.104 151.193 24.104C150.894 24.104 150.628 24.104 150.393 24.104C149.625 24.104 148.686 24.168 147.577 24.296C146.489 24.4027 145.316 24.5733 144.057 24.808C142.798 25.0427 141.54 25.3627 140.281 25.768L139.321 20.616C141.518 20.1893 143.609 19.8693 145.593 19.656C147.598 19.4213 149.486 19.304 151.257 19.304C151.94 19.304 152.665 19.3253 153.433 19.368C154.222 19.4107 154.969 19.5387 155.673 19.752C156.377 19.944 156.953 20.2747 157.401 20.744C157.849 21.192 158.073 21.8213 158.073 22.632C158.073 23.208 157.828 23.9227 157.337 24.776C156.868 25.608 156.196 26.536 155.321 27.56C154.468 28.5627 153.465 29.6187 152.313 30.728C151.182 31.8373 149.956 32.9467 148.633 34.056C149.806 33.992 150.969 33.96 152.121 33.96C153.764 33.96 155.214 33.992 156.473 34.056C157.732 34.12 158.564 34.2053 158.969 34.312L159.001 39.304C158.404 39.2613 157.444 39.2187 156.121 39.176C154.798 39.1547 153.337 39.144 151.737 39.144C150.244 39.144 148.718 39.1547 147.161 39.176C145.625 39.2187 144.206 39.2613 142.905 39.304C141.625 39.368 140.622 39.4427 139.897 39.528ZM171.669 39.56C169.621 39.56 167.818 39.1547 166.261 38.344C164.725 37.5547 163.519 36.4453 162.645 35.016C161.791 33.5867 161.365 31.9333 161.365 30.056C161.365 28.9253 161.557 27.7413 161.941 26.504C162.325 25.2453 162.943 24.072 163.797 22.984C164.65 21.896 165.77 21.0107 167.157 20.328C168.565 19.6453 170.271 19.304 172.277 19.304C173.727 19.304 174.943 19.464 175.925 19.784C176.927 20.104 177.738 20.52 178.357 21.032C178.997 21.544 179.477 22.088 179.797 22.664C180.138 23.24 180.362 23.7947 180.469 24.328C180.597 24.84 180.661 25.2667 180.661 25.608C180.661 27.6773 179.786 29.2773 178.037 30.408C176.309 31.5173 173.855 32.072 170.677 32.072C169.951 32.072 169.258 32.04 168.597 31.976C167.957 31.912 167.359 31.8373 166.805 31.752C167.21 32.8187 167.882 33.608 168.821 34.12C169.759 34.6107 170.73 34.856 171.733 34.856C173.183 34.856 174.463 34.6 175.573 34.088C176.682 33.5547 177.727 32.744 178.709 31.656L181.557 35.752C180.874 36.3067 180.106 36.8827 179.253 37.48C178.421 38.0773 177.397 38.568 176.181 38.952C174.965 39.3573 173.461 39.56 171.669 39.56ZM172.373 24.104C171.114 24.104 170.005 24.424 169.045 25.064C168.085 25.704 167.381 26.5467 166.933 27.592C167.466 27.6773 167.989 27.752 168.501 27.816C169.034 27.8587 169.557 27.88 170.069 27.88C170.538 27.88 171.071 27.8373 171.669 27.752C172.287 27.6667 172.885 27.5387 173.461 27.368C174.058 27.1973 174.549 26.984 174.933 26.728C175.317 26.4507 175.509 26.1307 175.509 25.768C175.509 25.5973 175.423 25.384 175.253 25.128C175.082 24.872 174.773 24.6373 174.325 24.424C173.877 24.2107 173.226 24.104 172.373 24.104ZM184.292 39.304C184.228 37.4267 184.175 35.688 184.132 34.088C184.111 32.488 184.1 30.9093 184.1 29.352C184.1 27.7947 184.111 26.2373 184.132 24.68C184.175 23.1013 184.239 21.416 184.324 19.624H189.732C189.647 20.584 189.572 21.5547 189.508 22.536C190.233 21.6187 191.097 20.8613 192.1 20.264C193.103 19.6453 194.287 19.336 195.652 19.336C196.996 19.336 198.095 19.56 198.948 20.008C199.823 20.456 200.505 21.0747 200.996 21.864C201.508 22.6533 201.871 23.56 202.084 24.584C202.319 25.5867 202.468 26.6747 202.532 27.848C202.596 29 202.628 30.1627 202.628 31.336C202.628 32.616 202.607 33.8427 202.564 35.016C202.521 36.1893 202.479 37.1707 202.436 37.96C202.393 38.7493 202.361 39.2187 202.34 39.368H196.964C197.007 38.4933 197.049 37.5653 197.092 36.584C197.135 35.5813 197.177 34.6 197.22 33.64C197.263 32.6587 197.284 31.7733 197.284 30.984C197.284 26.44 196.548 24.168 195.076 24.168C193.86 24.168 192.751 24.7013 191.748 25.768C190.767 26.8133 189.945 28.136 189.284 29.736C189.284 29.9493 189.284 30.1627 189.284 30.376C189.284 31.4 189.284 32.4667 189.284 33.576C189.305 34.664 189.327 35.7093 189.348 36.712C189.391 37.6933 189.423 38.5467 189.444 39.272L184.292 39.304Z" fill="url(#paint0_linear_24_33)"/>
<path d="M128.496 45.744H129.744L130.624 49.312L131.504 52.928H131.536L132.544 49.312L133.584 45.744H134.72L135.792 49.312L136.816 52.928H136.848L137.696 49.312L138.592 45.744H139.792L137.6 54H136.016L134.864 50.032L134.144 47.52H134.112L133.408 50.032L132.256 54H130.704L128.496 45.744ZM144.667 54.192C144.102 54.192 143.59 54.0907 143.131 53.888C142.683 53.6853 142.294 53.3973 141.963 53.024C141.643 52.64 141.392 52.1867 141.211 51.664C141.04 51.1307 140.955 50.5333 140.955 49.872C140.955 49.2213 141.04 48.6293 141.211 48.096C141.392 47.5627 141.643 47.1093 141.963 46.736C142.294 46.352 142.683 46.0587 143.131 45.856C143.59 45.6533 144.102 45.552 144.667 45.552C145.222 45.552 145.718 45.6533 146.155 45.856C146.592 46.0587 146.966 46.3413 147.275 46.704C147.584 47.056 147.819 47.4773 147.979 47.968C148.15 48.4587 148.235 48.9973 148.235 49.584V50.192H142.299V50.576C142.299 50.928 142.352 51.2587 142.459 51.568C142.576 51.8667 142.736 52.128 142.939 52.352C143.152 52.576 143.408 52.752 143.707 52.88C144.016 53.008 144.363 53.072 144.747 53.072C145.27 53.072 145.723 52.9493 146.107 52.704C146.502 52.4587 146.806 52.1067 147.019 51.648L147.931 52.304C147.664 52.8693 147.248 53.328 146.683 53.68C146.118 54.0213 145.446 54.192 144.667 54.192ZM144.667 46.624C144.315 46.624 143.995 46.688 143.707 46.816C143.419 46.9333 143.168 47.104 142.955 47.328C142.752 47.552 142.592 47.8187 142.475 48.128C142.358 48.4267 142.299 48.7573 142.299 49.12V49.232H146.859V49.056C146.859 48.32 146.656 47.7333 146.251 47.296C145.856 46.848 145.328 46.624 144.667 46.624ZM150.344 42.16H151.624V47.088H151.688C151.902 46.5653 152.211 46.1813 152.616 45.936C153.032 45.68 153.528 45.552 154.104 45.552C154.616 45.552 155.08 45.6533 155.496 45.856C155.912 46.0587 156.264 46.3467 156.552 46.72C156.851 47.0933 157.075 47.5467 157.224 48.08C157.384 48.6133 157.464 49.2107 157.464 49.872C157.464 50.5333 157.384 51.1307 157.224 51.664C157.075 52.1973 156.851 52.6507 156.552 53.024C156.264 53.3973 155.912 53.6853 155.496 53.888C155.08 54.0907 154.616 54.192 154.104 54.192C152.984 54.192 152.179 53.68 151.688 52.656H151.624V54H150.344V42.16ZM153.752 53.04C154.478 53.04 155.048 52.816 155.464 52.368C155.88 51.9093 156.088 51.312 156.088 50.576V49.168C156.088 48.432 155.88 47.84 155.464 47.392C155.048 46.9333 154.478 46.704 153.752 46.704C153.464 46.704 153.187 46.7467 152.92 46.832C152.664 46.9067 152.44 47.0133 152.248 47.152C152.056 47.2907 151.902 47.4613 151.784 47.664C151.678 47.856 151.624 48.064 151.624 48.288V51.36C151.624 51.6267 151.678 51.8667 151.784 52.08C151.902 52.2827 152.056 52.4587 152.248 52.608C152.44 52.7467 152.664 52.8533 152.92 52.928C153.187 53.0027 153.464 53.04 153.752 53.04ZM163.407 45.744H164.687V47.088H164.751C164.964 46.5653 165.274 46.1813 165.679 45.936C166.095 45.68 166.591 45.552 167.167 45.552C167.679 45.552 168.143 45.6533 168.559 45.856C168.975 46.0587 169.327 46.3467 169.615 46.72C169.914 47.0933 170.138 47.5467 170.287 48.08C170.447 48.6133 170.527 49.2107 170.527 49.872C170.527 50.5333 170.447 51.1307 170.287 51.664C170.138 52.1973 169.914 52.6507 169.615 53.024C169.327 53.3973 168.975 53.6853 168.559 53.888C168.143 54.0907 167.679 54.192 167.167 54.192C166.047 54.192 165.242 53.68 164.751 52.656H164.687V57.2H163.407V45.744ZM166.815 53.04C167.54 53.04 168.111 52.816 168.527 52.368C168.943 51.9093 169.151 51.312 169.151 50.576V49.168C169.151 48.432 168.943 47.84 168.527 47.392C168.111 46.9333 167.54 46.704 166.815 46.704C166.527 46.704 166.25 46.7467 165.983 46.832C165.727 46.9067 165.503 47.0133 165.311 47.152C165.119 47.2907 164.964 47.4613 164.847 47.664C164.74 47.856 164.687 48.064 164.687 48.288V51.36C164.687 51.6267 164.74 51.8667 164.847 52.08C164.964 52.2827 165.119 52.4587 165.311 52.608C165.503 52.7467 165.727 52.8533 165.983 52.928C166.25 53.0027 166.527 53.04 166.815 53.04ZM175.808 54.192C175.253 54.192 174.747 54.0907 174.288 53.888C173.829 53.6853 173.435 53.3973 173.104 53.024C172.784 52.64 172.533 52.1867 172.352 51.664C172.171 51.1307 172.08 50.5333 172.08 49.872C172.08 49.2213 172.171 48.6293 172.352 48.096C172.533 47.5627 172.784 47.1093 173.104 46.736C173.435 46.352 173.829 46.0587 174.288 45.856C174.747 45.6533 175.253 45.552 175.808 45.552C176.363 45.552 176.864 45.6533 177.312 45.856C177.771 46.0587 178.165 46.352 178.496 46.736C178.827 47.1093 179.083 47.5627 179.264 48.096C179.445 48.6293 179.536 49.2213 179.536 49.872C179.536 50.5333 179.445 51.1307 179.264 51.664C179.083 52.1867 178.827 52.64 178.496 53.024C178.165 53.3973 177.771 53.6853 177.312 53.888C176.864 54.0907 176.363 54.192 175.808 54.192ZM175.808 53.056C176.501 53.056 177.067 52.8427 177.504 52.416C177.941 51.9893 178.16 51.3387 178.16 50.464V49.28C178.16 48.4053 177.941 47.7547 177.504 47.328C177.067 46.9013 176.501 46.688 175.808 46.688C175.115 46.688 174.549 46.9013 174.112 47.328C173.675 47.7547 173.456 48.4053 173.456 49.28V50.464C173.456 51.3387 173.675 51.9893 174.112 52.416C174.549 52.8427 175.115 53.056 175.808 53.056ZM181.641 54V45.744H182.921V47.264H183.001C183.151 46.8693 183.417 46.5173 183.801 46.208C184.185 45.8987 184.713 45.744 185.385 45.744H185.881V47.024H185.129C184.436 47.024 183.892 47.1573 183.497 47.424C183.113 47.68 182.921 48.0053 182.921 48.4V54H181.641ZM189.403 54C188.955 54 188.613 53.8773 188.379 53.632C188.155 53.376 188.043 53.0453 188.043 52.64V46.864H186.683V45.744H187.451C187.728 45.744 187.915 45.6907 188.011 45.584C188.117 45.4667 188.171 45.2693 188.171 44.992V43.456H189.323V45.744H191.131V46.864H189.323V52.88H191.003V54H189.403ZM199.188 54C198.708 54 198.361 53.872 198.148 53.616C197.945 53.36 197.817 53.04 197.764 52.656H197.684C197.503 53.168 197.204 53.552 196.788 53.808C196.372 54.064 195.876 54.192 195.3 54.192C194.425 54.192 193.743 53.968 193.252 53.52C192.772 53.072 192.532 52.464 192.532 51.696C192.532 50.9173 192.815 50.32 193.38 49.904C193.956 49.488 194.847 49.28 196.052 49.28H197.684V48.464C197.684 47.8773 197.524 47.4293 197.204 47.12C196.884 46.8107 196.393 46.656 195.732 46.656C195.231 46.656 194.809 46.768 194.468 46.992C194.137 47.216 193.86 47.5147 193.636 47.888L192.868 47.168C193.092 46.72 193.449 46.3413 193.94 46.032C194.431 45.712 195.049 45.552 195.796 45.552C196.799 45.552 197.577 45.7973 198.132 46.288C198.687 46.7787 198.964 47.4613 198.964 48.336V52.88H199.908V54H199.188ZM195.508 53.104C195.828 53.104 196.121 53.0667 196.388 52.992C196.655 52.9173 196.884 52.8107 197.076 52.672C197.268 52.5333 197.417 52.3733 197.524 52.192C197.631 52.0107 197.684 51.8133 197.684 51.6V50.24H195.988C195.252 50.24 194.713 50.3467 194.372 50.56C194.041 50.7733 193.876 51.0827 193.876 51.488V51.824C193.876 52.2293 194.02 52.544 194.308 52.768C194.607 52.992 195.007 53.104 195.508 53.104ZM203.095 54C202.647 54 202.306 53.8773 202.071 53.632C201.847 53.376 201.735 53.056 201.735 52.672V42.16H203.015V52.88H204.231V54H203.095Z" fill="url(#paint1_linear_24_33)"/>
<defs>
<linearGradient id="paint0_linear_24_33" x1="7" y1="24.1897" x2="214.796" y2="34.8965" gradientUnits="userSpaceOnUse">
<stop stop-color="#9C4BFF"/>
<stop offset="1" stop-color="#DF4DDB"/>
</linearGradient>
<linearGradient id="paint1_linear_24_33" x1="130.629" y1="48.0431" x2="208.746" y2="51.3548" gradientUnits="userSpaceOnUse">
<stop stop-color="#9C4BFF"/>
<stop offset="1" stop-color="#DF4DDB"/>
</linearGradient>
</defs>
</svg>
